<svg preserveAspectRatio="none" width="100%" height="100%" overflow="visible" style="display: block;" viewBox="0 0 45.75 52.9019" fill="none" xmlns="http://www.w3.org/2000/svg">
<g id="Group">
<g id="Vector">
</g>
<path id="Vector_2" d="M45.75 22.875V40.6667C45.75 42.0149 45.2144 43.3078 44.2611 44.2611C43.3078 45.2144 42.0149 45.75 40.6667 45.75H5.08333C3.73515 45.75 2.44218 45.2144 1.48887 44.2611C0.535564 43.3078 0 42.0149 0 40.6667V22.875H45.75ZM33.0417 0C33.7158 0 34.3622 0.267782 34.8389 0.744437C35.3156 1.22109 35.5833 1.86757 35.5833 2.54167V5.08333H40.6667C42.0149 5.08333 43.3078 5.6189 44.2611 6.57221C45.2144 7.52552 45.75 8.81848 45.75 10.1667V17.7917H0V10.1667C0 8.81848 0.535564 7.52552 1.48887 6.57221C2.44218 5.6189 3.73515 5.08333 5.08333 5.08333H10.1667V2.54167C10.1667 1.86757 10.4344 1.22109 10.9111 0.744437C11.3878 0.267782 12.0342 0 12.7083 0C13.3824 0 14.0289 0.267782 14.5056 0.744437C14.9822 1.22109 15.25 1.86757 15.25 2.54167V5.08333H30.5V2.54167C30.5 1.86757 30.7678 1.22109 31.2444 0.744437C31.7211 0.267782 32.3676 0 33.0417 0Z" fill="var(--fill-0, #00B389)"/>
</g>
</svg>
