<svg width="33" height="28" viewBox="0 0 33 28" fill="none" xmlns="http://www.w3.org/2000/svg">
<path d="M10.3242 18.8711H11.7437V20.1411C11.7437 21.8511 12.6069 22.7144 14.3501 22.7144H22.6841C24.4106 22.7144 25.2822 21.8511 25.2822 20.1411V11.7407C25.2822 10.0308 24.4106 9.16748 22.6841 9.16748H21.2563V7.89746C21.2563 6.1875 20.3848 5.32422 18.6582 5.32422H10.3242C8.58105 5.32422 7.71777 6.1875 7.71777 7.89746V16.2979C7.71777 18.0078 8.58105 18.8711 10.3242 18.8711ZM10.3408 17.5347C9.51074 17.5347 9.0542 17.0864 9.0542 16.2231V7.97217C9.0542 7.10889 9.51074 6.66064 10.3408 6.66064H18.6333C19.4551 6.66064 19.9199 7.10889 19.9199 7.97217V9.16748H14.3501C12.6069 9.16748 11.7437 10.0225 11.7437 11.7407V17.5347H10.3408ZM14.3667 21.3779C13.5449 21.3779 13.0801 20.9297 13.0801 20.0664V11.8154C13.0801 10.9521 13.5449 10.5039 14.3667 10.5039H22.6592C23.481 10.5039 23.9458 10.9521 23.9458 11.8154V20.0664C23.9458 20.9297 23.481 21.3779 22.6592 21.3779H14.3667Z" fill="#737373"/>
</svg>
