<svg width="33" height="28" viewBox="0 0 33 28" fill="none" xmlns="http://www.w3.org/2000/svg">
<path d="M16.5 22.4736C21.1318 22.4736 24.9668 18.6304 24.9668 14.0068C24.9668 9.375 21.1235 5.54004 16.4917 5.54004C11.8682 5.54004 8.0332 9.375 8.0332 14.0068C8.0332 18.6304 11.8765 22.4736 16.5 22.4736ZM16.5 21.0625C12.582 21.0625 9.45264 17.9248 9.45264 14.0068C9.45264 10.0889 12.5737 6.95117 16.4917 6.95117C20.4097 6.95117 23.5474 10.0889 23.5557 14.0068C23.564 17.9248 20.418 21.0625 16.5 21.0625ZM16.5 9.78174C16.1431 9.78174 15.8774 10.0391 15.8774 10.4043V14.5547L15.9438 16.3062L15.1138 15.3101L14.126 14.314C14.0098 14.2061 13.8604 14.1313 13.686 14.1313C13.3457 14.1313 13.0884 14.397 13.0884 14.729C13.0884 14.9033 13.1382 15.0527 13.2461 15.1606L16.0186 17.9248C16.1846 18.0908 16.3257 18.1572 16.5 18.1572C16.6826 18.1572 16.832 18.0825 16.9897 17.9248L19.7539 15.1606C19.8618 15.0527 19.9282 14.9033 19.9282 14.729C19.9282 14.397 19.6626 14.1313 19.3223 14.1313C19.1396 14.1313 18.9902 14.1978 18.8823 14.314L17.9028 15.3101L17.0562 16.3145L17.1226 14.5547V10.4043C17.1226 10.0391 16.8652 9.78174 16.5 9.78174Z" fill="#737373"/>
</svg>
