<svg width="61" height="61" viewBox="0 0 61 61" fill="none" xmlns="http://www.w3.org/2000/svg">
<path d="M53.375 30.5V48.2917C53.375 49.6399 52.8394 50.9328 51.8861 51.8861C50.9328 52.8394 49.6399 53.375 48.2917 53.375H12.7083C11.3601 53.375 10.0672 52.8394 9.11387 51.8861C8.16056 50.9328 7.625 49.6399 7.625 48.2917V30.5H53.375ZM40.6667 7.625C41.3408 7.625 41.9872 7.89278 42.4639 8.36944C42.9406 8.84609 43.2083 9.49257 43.2083 10.1667V12.7083H48.2917C49.6399 12.7083 50.9328 13.2439 51.8861 14.1972C52.8394 15.1505 53.375 16.4435 53.375 17.7917V25.4167H7.625V17.7917C7.625 16.4435 8.16056 15.1505 9.11387 14.1972C10.0672 13.2439 11.3601 12.7083 12.7083 12.7083H17.7917V10.1667C17.7917 9.49257 18.0594 8.84609 18.5361 8.36944C19.0128 7.89278 19.6592 7.625 20.3333 7.625C21.0074 7.625 21.6539 7.89278 22.1306 8.36944C22.6072 8.84609 22.875 9.49257 22.875 10.1667V12.7083H38.125V10.1667C38.125 9.49257 38.3928 8.84609 38.8694 8.36944C39.3461 7.89278 39.9926 7.625 40.6667 7.625Z" fill="#00B389"/>
</svg>
